<?xml version="1.0" encoding="UTF-8"?>
<svg width="39px" height="20px" viewBox="0 0 39 20" version="1.1" xmlns="http://www.w3.org/2000/svg">
    <g stroke="none" stroke-width="1" fill="none" fill-rule="evenodd">
        <g fill="#FFFFFF" fill-rule="nonzero">
            <g id="asli-outlines" transform="translate(0.000000, 0.000000)">
                <path d="M4.056,13.572 L7.046,5.46 L10.27,13.572 L4.056,13.572 Z M17.342,18.902 C16.64,18.85 16.042,18.98 15.184,16.9 C15.184,16.9 13.442,12.454 8.658,0.988 L8.32,0.988 L3.874,12.844 C1.482,18.902 0.832,18.876 0,18.902 L0,19.292 L6.11,19.292 L6.11,18.902 C2.236,19.058 3.614,15.002 3.978,13.962 L10.426,13.962 L11.258,16.042 C11.57,16.77 12.376,18.902 10.66,18.902 L10.66,19.292 L17.342,19.292 L17.342,18.902 Z" id="Shape"></path>
                <path d="M26.04,18.174 C27.314,16.354 26.56,14.17 24.22,12.714 L21.594,11.076 C19.332,9.646 19.8,7.436 21.88,7.436 C24.714,7.436 25.494,9.672 25.754,10.894 L26.144,10.894 L26.144,7.852 C26.144,7.852 24.87,7.046 21.88,7.046 C19.254,7.046 18.37,8.45 18.37,8.45 C17.122,10.27 17.746,12.09 20.268,13.702 L22.894,15.288 C24.87,16.588 24.87,19.136 22.582,19.136 C19.358,19.136 18.63,16.38 18.344,15.002 L17.954,15.002 L17.954,18.408 C17.954,18.408 19.436,19.526 22.582,19.526 C25.104,19.526 26.04,18.174 26.04,18.174 Z" id="Path"></path>
                <path d="M32.762,18.902 C31.826,18.668 31.696,17.94 31.696,16.51 L31.696,0 L27.64,0.832 L27.64,1.222 C28.706,1.508 28.94,1.898 28.94,2.808 L28.94,16.51 C28.94,17.836 28.888,18.616 27.9,18.902 L27.9,19.292 L32.762,19.292 L32.762,18.902 Z" id="Path"></path>
                <path d="M35.584,4.914 C36.442,4.914 37.17,4.238 37.17,3.38 C37.17,2.522 36.442,1.82 35.584,1.82 C34.726,1.82 34.05,2.522 34.05,3.38 C34.05,4.238 34.726,4.914 35.584,4.914 Z M38.288,18.902 C37.352,18.642 37.222,17.94 37.222,16.51 L37.222,7.046 L33.166,7.93 L33.166,8.32 C34.232,8.762 34.492,9.126 34.492,10.01 L34.492,16.51 C34.492,17.836 34.44,18.59 33.452,18.902 L33.452,19.292 L38.288,19.292 L38.288,18.902 Z" id="Shape"></path>
            </g>
        </g>
    </g>
</svg>
